<svg xmlns="http://www.w3.org/2000/svg" viewBox="0 0 224 40" role="img" aria-label="CreatorCanon">
  <rect width="224" height="40" fill="none"/>
  <g>
    <path d="M8 9.5 14.5 4H35l-6.5 5.5H8Z" fill="#8B8AFF" opacity=".9"/>
    <path d="M8 9.5h20.5v7H15.5v7h13v7H8v-21Z" fill="#5856F6"/>
    <path d="M28.5 9.5 35 4v7l-6.5 5.5v-7ZM28.5 23.5 35 18v7l-6.5 5.5v-7Z" fill="#4F4DE0"/>
    <path d="M15.5 16.5 22 11h13l-6.5 5.5h-13Z" fill="#4F4DE0" opacity=".72"/>
    <path d="M15.5 23.5h13L35 18H22l-6.5 5.5Z" fill="#8B8AFF" opacity=".64"/>
    <path d="M8 30.5 14.5 36H35l-6.5-5.5H8Z" fill="#4F4DE0"/>
  </g>
  <text x="50" y="25.5" fill="#FFFFFF" font-family="Inter, Geist, Arial, sans-serif" font-size="19" font-weight="650">CreatorCanon</text>
</svg>
